<mxfile host="app.diagrams.net" agent="Mozilla/5.0 (Windows NT 10.0; Win64; x64) AppleWebKit/537.36 (KHTML, like Gecko) Chrome/134.0.0.0 Safari/537.36" version="26.1.3">
  <diagram name="Page-1" id="0wvcPQkNIMEkNJ8vTqTe">
    <mxGraphModel dx="1221" dy="759" grid="1" gridSize="10" guides="1" tooltips="1" connect="1" arrows="1" fold="1" page="1" pageScale="1" pageWidth="850" pageHeight="1100" math="0" shadow="0">
      <root>
        <mxCell id="0" />
        <mxCell id="1" parent="0" />
        <mxCell id="-mQsC3mf4J3q_37DcI63-1" value="&lt;font style=&quot;font-size: 18px;&quot;&gt;Φοιτητής&lt;/font&gt;" style="shape=umlActor;verticalLabelPosition=bottom;verticalAlign=top;html=1;outlineConnect=0;" parent="1" vertex="1">
          <mxGeometry x="20" y="160" width="50" height="70" as="geometry" />
        </mxCell>
        <mxCell id="-mQsC3mf4J3q_37DcI63-2" value="&lt;font style=&quot;font-size: 18px;&quot;&gt;Καθηγητής&lt;/font&gt;" style="shape=umlActor;verticalLabelPosition=bottom;verticalAlign=top;html=1;outlineConnect=0;" parent="1" vertex="1">
          <mxGeometry x="20" y="690" width="50" height="70" as="geometry" />
        </mxCell>
        <mxCell id="-mQsC3mf4J3q_37DcI63-3" value="&lt;font style=&quot;font-size: 18px;&quot;&gt;Εταιρεία&lt;/font&gt;" style="shape=umlActor;verticalLabelPosition=bottom;verticalAlign=top;html=1;outlineConnect=0;" parent="1" vertex="1">
          <mxGeometry x="720" y="160" width="50" height="70" as="geometry" />
        </mxCell>
        <mxCell id="-mQsC3mf4J3q_37DcI63-4" value="&lt;font style=&quot;font-size: 18px;&quot;&gt;Μέλος Επιτροπής&lt;/font&gt;" style="shape=umlActor;verticalLabelPosition=bottom;verticalAlign=top;html=1;outlineConnect=0;" parent="1" vertex="1">
          <mxGeometry x="750" y="620" width="50" height="70" as="geometry" />
        </mxCell>
        <mxCell id="-mQsC3mf4J3q_37DcI63-5" value="&lt;font style=&quot;font-size: 18px;&quot;&gt;Σύστημα&lt;/font&gt;" style="swimlane;whiteSpace=wrap;html=1;" parent="1" vertex="1">
          <mxGeometry x="110" y="70" width="570" height="760" as="geometry">
            <mxRectangle x="140" y="70" width="80" height="30" as="alternateBounds" />
          </mxGeometry>
        </mxCell>
        <mxCell id="-mQsC3mf4J3q_37DcI63-7" value="&lt;font style=&quot;font-size: 16px;&quot;&gt;Σύνδεση χρήστη&lt;/font&gt;" style="ellipse;whiteSpace=wrap;html=1;fillColor=#f5f5f5;fontColor=#333333;strokeColor=#666666;" parent="-mQsC3mf4J3q_37DcI63-5" vertex="1">
          <mxGeometry x="52.5" y="340" width="130" height="60" as="geometry" />
        </mxCell>
        <mxCell id="-mQsC3mf4J3q_37DcI63-8" value="&lt;font style=&quot;font-size: 16px;&quot;&gt;Δημιουργία νέου χρήστη&lt;/font&gt;" style="ellipse;whiteSpace=wrap;html=1;fillColor=#f5f5f5;fontColor=#333333;strokeColor=#666666;" parent="-mQsC3mf4J3q_37DcI63-5" vertex="1">
          <mxGeometry x="40" y="410" width="130" height="60" as="geometry" />
        </mxCell>
        <mxCell id="-mQsC3mf4J3q_37DcI63-9" value="&lt;span style=&quot;font-size:12.0pt;line-height:&lt;br/&gt;115%;font-family:&amp;quot;Calibri&amp;quot;,sans-serif;mso-fareast-font-family:Aptos;mso-fareast-theme-font:&lt;br/&gt;minor-latin;mso-ansi-language:EL;mso-fareast-language:EN-US;mso-bidi-language:&lt;br/&gt;AR-SA&quot; lang=&quot;EL&quot;&gt;Υποβολή αίτησης σε διαθέσιμη θέση πρακτικής&lt;/span&gt;" style="ellipse;whiteSpace=wrap;html=1;fillColor=#f5f5f5;strokeColor=#666666;fontColor=#333333;" parent="-mQsC3mf4J3q_37DcI63-5" vertex="1">
          <mxGeometry x="22.5" y="40" width="165" height="80" as="geometry" />
        </mxCell>
        <mxCell id="-mQsC3mf4J3q_37DcI63-10" value="&lt;font style=&quot;font-size: 16px;&quot;&gt;&lt;span style=&quot;font-family: Calibri, sans-serif;&quot; lang=&quot;EL&quot;&gt;Ενημέρωση &lt;/span&gt;&lt;span style=&quot;line-height: 115%;&quot;&gt;logbook&lt;/span&gt;&lt;span style=&quot;line-height: 115%;&quot;&gt; &lt;span style=&quot;&quot; lang=&quot;EL&quot;&gt;φοιτητή&lt;/span&gt;&lt;/span&gt;&lt;/font&gt;" style="ellipse;whiteSpace=wrap;html=1;fillColor=#f5f5f5;strokeColor=#666666;fontColor=#333333;" parent="-mQsC3mf4J3q_37DcI63-5" vertex="1">
          <mxGeometry x="50" y="130" width="160" height="60" as="geometry" />
        </mxCell>
        <mxCell id="-mQsC3mf4J3q_37DcI63-16" value="" style="endArrow=classic;html=1;rounded=0;entryX=0;entryY=0.333;entryDx=0;entryDy=0;entryPerimeter=0;" parent="-mQsC3mf4J3q_37DcI63-5" target="-mQsC3mf4J3q_37DcI63-10" edge="1">
          <mxGeometry width="50" height="50" relative="1" as="geometry">
            <mxPoint x="-30" y="130" as="sourcePoint" />
            <mxPoint x="25" y="250" as="targetPoint" />
          </mxGeometry>
        </mxCell>
        <mxCell id="-mQsC3mf4J3q_37DcI63-18" value="&lt;span style=&quot;font-size:12.0pt;line-height:&lt;br/&gt;115%;font-family:&amp;quot;Calibri&amp;quot;,sans-serif;mso-fareast-font-family:Aptos;mso-fareast-theme-font:&lt;br/&gt;minor-latin;mso-ansi-language:EL;mso-fareast-language:EN-US;mso-bidi-language:&lt;br/&gt;AR-SA&quot; lang=&quot;EL&quot;&gt;Ανάρτηση νέας θέσης πρακτικής άσκησης&lt;/span&gt;" style="ellipse;whiteSpace=wrap;html=1;fillColor=#f5f5f5;strokeColor=#666666;fontColor=#333333;" parent="-mQsC3mf4J3q_37DcI63-5" vertex="1">
          <mxGeometry x="390" y="30" width="160" height="60" as="geometry" />
        </mxCell>
        <mxCell id="-mQsC3mf4J3q_37DcI63-23" value="&lt;span style=&quot;font-size:12.0pt;line-height:&lt;br/&gt;115%;font-family:&amp;quot;Calibri&amp;quot;,sans-serif;mso-fareast-font-family:Aptos;mso-fareast-theme-font:&lt;br/&gt;minor-latin;mso-ansi-language:EL;mso-fareast-language:EN-US;mso-bidi-language:&lt;br/&gt;AR-SA&quot; lang=&quot;EL&quot;&gt;Διαγραφή θέσης πρακτικής άσκησης&lt;/span&gt;" style="ellipse;whiteSpace=wrap;html=1;fillColor=#f5f5f5;strokeColor=#666666;fontColor=#333333;" parent="-mQsC3mf4J3q_37DcI63-5" vertex="1">
          <mxGeometry x="330" y="90" width="160" height="60" as="geometry" />
        </mxCell>
        <mxCell id="-mQsC3mf4J3q_37DcI63-25" value="&lt;span style=&quot;font-size:12.0pt;line-height:&lt;br/&gt;115%;font-family:&amp;quot;Calibri&amp;quot;,sans-serif;mso-fareast-font-family:Aptos;mso-fareast-theme-font:&lt;br/&gt;minor-latin;mso-ansi-language:EL;mso-fareast-language:EN-US;mso-bidi-language:&lt;br/&gt;AR-SA&quot; lang=&quot;EL&quot;&gt;Αξιολόγηση θέσης απο επιβλέποντα καθηγητή&amp;nbsp;&lt;/span&gt;" style="ellipse;whiteSpace=wrap;html=1;fillColor=#f5f5f5;strokeColor=#666666;fontColor=#333333;" parent="-mQsC3mf4J3q_37DcI63-5" vertex="1">
          <mxGeometry x="25" y="680" width="185" height="60" as="geometry" />
        </mxCell>
        <mxCell id="-mQsC3mf4J3q_37DcI63-29" value="&lt;span style=&quot;font-size:12.0pt;line-height:&lt;br/&gt;115%;font-family:&amp;quot;Calibri&amp;quot;,sans-serif;mso-fareast-font-family:Aptos;mso-fareast-theme-font:&lt;br/&gt;minor-latin;mso-ansi-language:EL;mso-fareast-language:EN-US;mso-bidi-language:&lt;br/&gt;AR-SA&quot; lang=&quot;EL&quot;&gt;Επεξεργασία Προφίλ Χρήστη&lt;/span&gt;" style="ellipse;whiteSpace=wrap;html=1;fillColor=#f5f5f5;strokeColor=#666666;fontColor=#333333;" parent="-mQsC3mf4J3q_37DcI63-5" vertex="1">
          <mxGeometry x="15" y="480" width="155" height="60" as="geometry" />
        </mxCell>
        <mxCell id="-mQsC3mf4J3q_37DcI63-47" value="&lt;span style=&quot;font-size:12.0pt;line-height:&lt;br/&gt;115%;font-family:&amp;quot;Calibri&amp;quot;,sans-serif;mso-fareast-font-family:Aptos;mso-fareast-theme-font:&lt;br/&gt;minor-latin;mso-ansi-language:EL;mso-fareast-language:EN-US;mso-bidi-language:&lt;br/&gt;AR-SA&quot; lang=&quot;EL&quot;&gt;Ανάθεση κατάλληλης θέσης πρακτικής&lt;/span&gt;" style="ellipse;whiteSpace=wrap;html=1;fillColor=#f5f5f5;strokeColor=#666666;fontColor=#333333;" parent="-mQsC3mf4J3q_37DcI63-5" vertex="1">
          <mxGeometry x="387.5" y="500" width="155" height="60" as="geometry" />
        </mxCell>
        <mxCell id="-mQsC3mf4J3q_37DcI63-48" value="&lt;span style=&quot;font-size:12.0pt;line-height:&lt;br/&gt;115%;font-family:&amp;quot;Calibri&amp;quot;,sans-serif;mso-fareast-font-family:Aptos;mso-fareast-theme-font:&lt;br/&gt;minor-latin;mso-ansi-language:EL;mso-fareast-language:EN-US;mso-bidi-language:&lt;br/&gt;AR-SA&quot; lang=&quot;EL&quot;&gt;Ανάθεση επιβλέποντα καθηγητή σε ανατεθειμένη θέση&amp;nbsp;&lt;/span&gt;" style="ellipse;whiteSpace=wrap;html=1;fillColor=#f5f5f5;strokeColor=#666666;fontColor=#333333;" parent="-mQsC3mf4J3q_37DcI63-5" vertex="1">
          <mxGeometry x="380" y="580" width="170" height="80" as="geometry" />
        </mxCell>
        <mxCell id="-mQsC3mf4J3q_37DcI63-51" value="&lt;span style=&quot;font-size:12.0pt;line-height:&lt;br/&gt;115%;font-family:&amp;quot;Calibri&amp;quot;,sans-serif;mso-fareast-font-family:Aptos;mso-fareast-theme-font:&lt;br/&gt;minor-latin;mso-ansi-language:EL;mso-fareast-language:EN-US;mso-bidi-language:&lt;br/&gt;AR-SA&quot; lang=&quot;EL&quot;&gt;Ολοκλήρωση θέσης πρακτικής άσκησης&amp;nbsp;&lt;/span&gt;" style="ellipse;whiteSpace=wrap;html=1;fillColor=#f5f5f5;strokeColor=#666666;fontColor=#333333;" parent="-mQsC3mf4J3q_37DcI63-5" vertex="1">
          <mxGeometry x="395" y="680" width="155" height="60" as="geometry" />
        </mxCell>
        <mxCell id="-mQsC3mf4J3q_37DcI63-57" value="&lt;font style=&quot;font-size: 16px;&quot; face=&quot;Calibri, sans-serif&quot;&gt;Παρακολούθηση τελικής βαθμολογίας&lt;/font&gt;" style="ellipse;whiteSpace=wrap;html=1;fillColor=#f5f5f5;strokeColor=#666666;fontColor=#333333;" parent="-mQsC3mf4J3q_37DcI63-5" vertex="1">
          <mxGeometry x="10" y="210" width="190" height="70" as="geometry" />
        </mxCell>
        <mxCell id="-mQsC3mf4J3q_37DcI63-59" value="&lt;span style=&quot;font-size:12.0pt;line-height:&lt;br/&gt;115%;font-family:&amp;quot;Calibri&amp;quot;,sans-serif;mso-fareast-font-family:Aptos;mso-fareast-theme-font:&lt;br/&gt;minor-latin;mso-ansi-language:EL;mso-fareast-language:EN-US;mso-bidi-language:&lt;br/&gt;AR-SA&quot; lang=&quot;EL&quot;&gt;Αξιολόγηση θέσης απο εταρεία&lt;/span&gt;" style="ellipse;whiteSpace=wrap;html=1;fillColor=#f5f5f5;strokeColor=#666666;fontColor=#333333;" parent="-mQsC3mf4J3q_37DcI63-5" vertex="1">
          <mxGeometry x="330" y="170" width="147.5" height="60" as="geometry" />
        </mxCell>
        <mxCell id="-mQsC3mf4J3q_37DcI63-61" value="&lt;span style=&quot;font-size:12.0pt;line-height:&lt;br/&gt;115%;font-family:&amp;quot;Calibri&amp;quot;,sans-serif;mso-fareast-font-family:Aptos;mso-fareast-theme-font:&lt;br/&gt;minor-latin;mso-ansi-language:EL;mso-fareast-language:EN-US;mso-bidi-language:&lt;br/&gt;AR-SA&quot; lang=&quot;EL&quot;&gt;Παρακολούθηση ιστορικού βαθμολογιων θέσεων πρακτικής άσκησης&amp;nbsp;&lt;/span&gt;" style="ellipse;whiteSpace=wrap;html=1;fillColor=#f5f5f5;strokeColor=#666666;fontColor=#333333;" parent="-mQsC3mf4J3q_37DcI63-5" vertex="1">
          <mxGeometry x="380" y="380" width="162.5" height="110" as="geometry" />
        </mxCell>
        <mxCell id="Ax1lASM6N_EkLYU4cLcj-1" value="&lt;span style=&quot;font-size:12.0pt;line-height:&lt;br/&gt;115%;font-family:&amp;quot;Calibri&amp;quot;,sans-serif;mso-fareast-font-family:Aptos;mso-fareast-theme-font:&lt;br/&gt;minor-latin;mso-ansi-language:EL;mso-fareast-language:EN-US;mso-bidi-language:&lt;br/&gt;AR-SA&quot; lang=&quot;EL&quot;&gt;Προβολή αναθετημένων θέσεων πρακτικής&lt;/span&gt;" style="ellipse;whiteSpace=wrap;html=1;fillColor=#f5f5f5;strokeColor=#666666;fontColor=#333333;" vertex="1" parent="-mQsC3mf4J3q_37DcI63-5">
          <mxGeometry x="30" y="610" width="185" height="60" as="geometry" />
        </mxCell>
        <mxCell id="Ax1lASM6N_EkLYU4cLcj-3" value="&lt;span style=&quot;font-size:12.0pt;line-height:&lt;br/&gt;115%;font-family:&amp;quot;Calibri&amp;quot;,sans-serif;mso-fareast-font-family:Aptos;mso-fareast-theme-font:&lt;br/&gt;minor-latin;mso-ansi-language:EL;mso-fareast-language:EN-US;mso-bidi-language:&lt;br/&gt;AR-SA&quot; lang=&quot;EL&quot;&gt;Προβολή αναθετημένων θέσεων πρακτικής&lt;/span&gt;" style="ellipse;whiteSpace=wrap;html=1;fillColor=#f5f5f5;strokeColor=#666666;fontColor=#333333;" vertex="1" parent="-mQsC3mf4J3q_37DcI63-5">
          <mxGeometry x="350" y="250" width="185" height="60" as="geometry" />
        </mxCell>
        <mxCell id="-mQsC3mf4J3q_37DcI63-15" value="" style="endArrow=classic;html=1;rounded=0;entryX=0;entryY=0.5;entryDx=0;entryDy=0;" parent="1" target="-mQsC3mf4J3q_37DcI63-9" edge="1">
          <mxGeometry width="50" height="50" relative="1" as="geometry">
            <mxPoint x="80" y="200" as="sourcePoint" />
            <mxPoint x="180" y="230" as="targetPoint" />
          </mxGeometry>
        </mxCell>
        <mxCell id="-mQsC3mf4J3q_37DcI63-19" value="" style="endArrow=classic;html=1;rounded=0;entryX=1;entryY=0.5;entryDx=0;entryDy=0;" parent="1" target="-mQsC3mf4J3q_37DcI63-18" edge="1">
          <mxGeometry width="50" height="50" relative="1" as="geometry">
            <mxPoint x="710" y="200" as="sourcePoint" />
            <mxPoint x="590" y="420" as="targetPoint" />
          </mxGeometry>
        </mxCell>
        <mxCell id="-mQsC3mf4J3q_37DcI63-24" value="" style="endArrow=classic;html=1;rounded=0;entryX=1;entryY=0.5;entryDx=0;entryDy=0;" parent="1" target="-mQsC3mf4J3q_37DcI63-23" edge="1">
          <mxGeometry width="50" height="50" relative="1" as="geometry">
            <mxPoint x="710" y="200" as="sourcePoint" />
            <mxPoint x="680" y="150" as="targetPoint" />
          </mxGeometry>
        </mxCell>
        <mxCell id="-mQsC3mf4J3q_37DcI63-26" value="" style="endArrow=classic;html=1;rounded=0;entryX=0;entryY=0.5;entryDx=0;entryDy=0;" parent="1" target="-mQsC3mf4J3q_37DcI63-25" edge="1">
          <mxGeometry width="50" height="50" relative="1" as="geometry">
            <mxPoint x="90" y="740" as="sourcePoint" />
            <mxPoint x="170" y="230" as="targetPoint" />
          </mxGeometry>
        </mxCell>
        <mxCell id="-mQsC3mf4J3q_37DcI63-30" value="" style="endArrow=classic;html=1;rounded=0;entryX=0;entryY=0.5;entryDx=0;entryDy=0;" parent="1" target="-mQsC3mf4J3q_37DcI63-29" edge="1">
          <mxGeometry width="50" height="50" relative="1" as="geometry">
            <mxPoint x="80" y="480" as="sourcePoint" />
            <mxPoint x="155" y="680" as="targetPoint" />
          </mxGeometry>
        </mxCell>
        <mxCell id="-mQsC3mf4J3q_37DcI63-49" value="" style="endArrow=classic;html=1;rounded=0;entryX=1;entryY=0.5;entryDx=0;entryDy=0;" parent="1" target="-mQsC3mf4J3q_37DcI63-47" edge="1">
          <mxGeometry width="50" height="50" relative="1" as="geometry">
            <mxPoint x="730" y="650" as="sourcePoint" />
            <mxPoint x="155" y="680" as="targetPoint" />
          </mxGeometry>
        </mxCell>
        <mxCell id="-mQsC3mf4J3q_37DcI63-50" value="" style="endArrow=classic;html=1;rounded=0;entryX=1;entryY=0.5;entryDx=0;entryDy=0;" parent="1" target="-mQsC3mf4J3q_37DcI63-48" edge="1">
          <mxGeometry width="50" height="50" relative="1" as="geometry">
            <mxPoint x="730" y="650" as="sourcePoint" />
            <mxPoint x="165" y="690" as="targetPoint" />
          </mxGeometry>
        </mxCell>
        <mxCell id="-mQsC3mf4J3q_37DcI63-52" value="" style="endArrow=classic;html=1;rounded=0;entryX=1;entryY=0.5;entryDx=0;entryDy=0;" parent="1" target="-mQsC3mf4J3q_37DcI63-51" edge="1">
          <mxGeometry width="50" height="50" relative="1" as="geometry">
            <mxPoint x="730" y="650" as="sourcePoint" />
            <mxPoint x="670" y="720" as="targetPoint" />
          </mxGeometry>
        </mxCell>
        <mxCell id="-mQsC3mf4J3q_37DcI63-53" value="" style="endArrow=classic;html=1;rounded=0;entryX=1;entryY=0.5;entryDx=0;entryDy=0;" parent="1" target="-mQsC3mf4J3q_37DcI63-59" edge="1">
          <mxGeometry width="50" height="50" relative="1" as="geometry">
            <mxPoint x="710" y="200" as="sourcePoint" />
            <mxPoint x="600" y="230" as="targetPoint" />
          </mxGeometry>
        </mxCell>
        <mxCell id="-mQsC3mf4J3q_37DcI63-54" value="" style="endArrow=classic;html=1;rounded=0;entryX=0;entryY=0.5;entryDx=0;entryDy=0;" parent="1" target="-mQsC3mf4J3q_37DcI63-8" edge="1">
          <mxGeometry width="50" height="50" relative="1" as="geometry">
            <mxPoint x="80" y="480" as="sourcePoint" />
            <mxPoint x="155" y="680" as="targetPoint" />
          </mxGeometry>
        </mxCell>
        <mxCell id="-mQsC3mf4J3q_37DcI63-55" value="" style="endArrow=classic;html=1;rounded=0;entryX=0;entryY=0.5;entryDx=0;entryDy=0;" parent="1" target="-mQsC3mf4J3q_37DcI63-7" edge="1">
          <mxGeometry width="50" height="50" relative="1" as="geometry">
            <mxPoint x="80" y="480" as="sourcePoint" />
            <mxPoint x="340" y="510" as="targetPoint" />
          </mxGeometry>
        </mxCell>
        <mxCell id="-mQsC3mf4J3q_37DcI63-56" value="&lt;font style=&quot;font-size: 18px;&quot;&gt;Χρήστης&lt;/font&gt;" style="shape=umlActor;verticalLabelPosition=bottom;verticalAlign=top;html=1;outlineConnect=0;" parent="1" vertex="1">
          <mxGeometry x="20" y="430" width="50" height="70" as="geometry" />
        </mxCell>
        <mxCell id="-mQsC3mf4J3q_37DcI63-58" value="" style="endArrow=classic;html=1;rounded=0;entryX=0;entryY=0;entryDx=0;entryDy=0;" parent="1" target="-mQsC3mf4J3q_37DcI63-57" edge="1">
          <mxGeometry width="50" height="50" relative="1" as="geometry">
            <mxPoint x="80" y="200" as="sourcePoint" />
            <mxPoint x="240" y="290" as="targetPoint" />
          </mxGeometry>
        </mxCell>
        <mxCell id="-mQsC3mf4J3q_37DcI63-62" value="" style="endArrow=classic;html=1;rounded=0;entryX=1;entryY=0.5;entryDx=0;entryDy=0;" parent="1" target="-mQsC3mf4J3q_37DcI63-61" edge="1">
          <mxGeometry width="50" height="50" relative="1" as="geometry">
            <mxPoint x="730" y="650" as="sourcePoint" />
            <mxPoint x="663" y="610" as="targetPoint" />
          </mxGeometry>
        </mxCell>
        <mxCell id="Ax1lASM6N_EkLYU4cLcj-2" value="" style="endArrow=classic;html=1;rounded=0;entryX=0;entryY=1;entryDx=0;entryDy=0;" edge="1" parent="1" target="Ax1lASM6N_EkLYU4cLcj-1">
          <mxGeometry width="50" height="50" relative="1" as="geometry">
            <mxPoint x="90" y="740" as="sourcePoint" />
            <mxPoint x="155" y="680" as="targetPoint" />
          </mxGeometry>
        </mxCell>
        <mxCell id="Ax1lASM6N_EkLYU4cLcj-4" value="" style="endArrow=classic;html=1;rounded=0;entryX=0.73;entryY=0;entryDx=0;entryDy=0;entryPerimeter=0;" edge="1" parent="1" target="Ax1lASM6N_EkLYU4cLcj-3">
          <mxGeometry width="50" height="50" relative="1" as="geometry">
            <mxPoint x="710" y="200" as="sourcePoint" />
            <mxPoint x="600" y="340" as="targetPoint" />
          </mxGeometry>
        </mxCell>
      </root>
    </mxGraphModel>
  </diagram>
</mxfile>
